<?xml version="1.0" standalone="no"?>
<!DOCTYPE svg PUBLIC "-//W3C//DTD SVG 1.1//EN" "http://www.w3.org/Graphics/SVG/1.1/DTD/svg11.dtd">
<svg viewBox="0 0 490 456" style="background-color:#ffffff00" version="1.1"
	xmlns="http://www.w3.org/2000/svg" xmlns:xlink="http://www.w3.org/1999/xlink" xml:space="preserve"
	x="0px" y="0px" width="490px" height="456px"
>
	<path id="blob-3" d="M 199.8 14.1 C 167.9 15.2 136 28.6 114.2 52.2 C 98.4 69.5 88.6 91.9 85.9 115 C 83.8 131.1 85 147.4 84.3 163.6 C 83.7 183.5 81.5 203.6 74.3 222.3 C 67 242.6 57.4 262.6 55.5 284.4 C 53.7 304.8 60.7 325.1 71.4 342.3 C 88.6 370.8 114.7 393.2 143.6 409.4 C 186.6 433.7 236.5 446.2 285.9 442.9 C 320.6 440.3 355.3 428.6 382.2 406.1 C 402.4 389.2 417.6 366.6 426 341.7 C 437.5 308.5 437.8 272.4 432.2 238 C 428.6 216.5 422.7 195.3 414.6 175.1 C 404.4 150.9 388.6 129.2 369 111.8 C 349.5 93.4 328.7 76.6 308.1 59.6 C 287.7 43.5 265.9 28 240.9 20 C 227.6 15.8 213.7 13.9 199.8 14.1 L 199.8 14.1 Z" fill="#000000"/>
	<path id="blob-32" d="M 296.9 87.2 C 237.4 50.7 157.3 45.8 122.6 92 C 93.9 122.1 102.8 142.9 97.2 184 C 92.7 215.3 65.6 281.8 75.6 315.3 C 90.9 358.1 130.8 394.1 173.6 414.2 C 246.4 448.9 334.1 438.5 377 386.8 C 408.5 349.5 414.1 295.4 401.3 244 C 388.7 191.3 359.3 137.6 313.7 98.6 C 308.5 94.3 302.4 90.7 296.9 87.2 L 296.9 87.2 Z" fill="#000000"/>
	<path id="blob-33" d="M 319.7 130 C 272.1 88.3 199.5 82.7 160.5 117.1 C 129.6 138.6 128 166 116.1 200.7 C 106.9 227.3 78.5 260.7 82.2 291.5 C 88.7 331.3 118.8 369.3 154.2 394 C 214.2 436.3 295.3 441.8 342.5 404 C 377.2 376.8 391.1 330.7 388.1 283.9 C 385.4 235.9 367.7 184.3 333.1 142.6 C 329 138.1 324.2 133.9 319.7 130 L 319.7 130 Z" fill="#000000"/>
	<path id="blob-34" d="M 332.5 172.5 C 297.3 129.9 235.4 114.6 196.8 138.4 C 167 152.4 148.7 180.1 133.5 208.2 C 121.7 229.6 105.3 249.6 104 276.5 C 103.9 311.6 124.5 348.5 151.5 374.7 C 197.3 419.7 266.7 436.2 312.9 410.6 C 346.8 392.3 365.5 354.9 369.5 314.3 C 374.1 272.8 366.2 226 342.2 185.2 C 339.4 180.8 335.8 176.5 332.5 172.5 L 332.5 172.5 Z" fill="#000000"/>
	<path id="blob-35" d="M 306.7 195.1 C 272.6 162.5 218.1 155.4 187.1 178.9 C 162.8 193.5 149.6 218.5 139.1 243.6 C 131 262.7 118.7 281 120 303.8 C 123.1 333.3 144.2 362.4 169.7 382 C 213.1 415.6 274.2 423 311.6 397.2 C 339 378.7 351.6 345.4 351.4 310.9 C 351.5 275.6 340.5 237 316.2 204.8 C 313.4 201.4 310 198.1 306.7 195.1 L 306.7 195.1 Z" fill="#000000"/>
	<path id="blob-36" d="M 302 223.4 C 271.2 196.2 222.1 190.3 194.1 209.9 C 172.2 222.1 160.3 243 150.8 263.9 C 143.5 279.9 132.4 295.2 133.6 314.2 C 136.4 338.8 155.4 363.1 178.4 379.5 C 217.6 407.5 272.7 413.7 306.4 392.2 C 331.1 376.7 342.5 348.9 342.3 320.1 C 342.4 290.6 332.4 258.4 310.5 231.5 C 308 228.7 304.9 226 302 223.4 L 302 223.4 Z" fill="#000000"/>
	<path id="blob-37" d="M 283.2 237 C 256.7 214.8 214.4 210 190.2 226 C 171.4 235.9 161.1 253 153 270.1 C 146.6 283.1 137.1 295.6 138.1 311.2 C 140.5 331.2 156.9 351.1 176.8 364.5 C 210.5 387.4 258 392.4 287 374.9 C 308.4 362.2 318.2 339.5 318 316 C 318.1 291.9 309.5 265.6 290.6 243.6 C 288.4 241.3 285.8 239.1 283.2 237 L 283.2 237 Z" fill="#000000"/>
</svg>
