<?xml version="1.0" standalone="no"?>
<!DOCTYPE svg PUBLIC "-//W3C//DTD SVG 1.1//EN" "http://www.w3.org/Graphics/SVG/1.1/DTD/svg11.dtd">
<svg viewBox="0 0 490 456" style="background-color:#ffffff00" version="1.1"
	xmlns="http://www.w3.org/2000/svg" xmlns:xlink="http://www.w3.org/1999/xlink" xml:space="preserve"
	x="0px" y="0px" width="490px" height="456px"
>
	<path id="blob-1" d="M 463.9 149.64 C 456.1 94.22 377.4 24.5 324.8 33.21 C 272.2 41.92 237.2 43.06 199.6 29.51 C 161.98 15.96 133.11 19.76 98.7 54.56 C 64.29 89.355 28.18 174.93 25.73 219.3 C 23.28 263.7 31.24 272.9 61.95 281.3 C 92.66 289.7 135.92 281.4 173.87 309.8 C 211.8 338.2 247.4 406.2 285.1 425.9 C 322.8 445.6 340.2 431.7 365.3 398.5 C 390.4 365.3 425.5 303.8 443.8 262.2 C 462.1 220.6 471.7 205.1 463.9 149.64 L 463.9 149.64 Z" fill="#000000"/>
	<path id="blob-12" d="M 415.7 145.61 C 406.3 87.593 351.9 45.54 299.5 55.5 C 253.3 64.29 206.4 45.45 159.72 47.07 C 128.06 48.17 100.45 70.544 81.2296 98.39 C 55.84 135.18 32.05 179.72 36.13 227.7 C 38.41 254.6 66.16 267.6 89.083 266.8 C 124.43 265.5 162.49 265.3 194.3 287.7 C 230.3 313 255.3 358.3 297.4 371.8 C 326.2 381 354.1 357.4 371.9 332.8 C 409.2 281.4 426.4 211.6 415.7 145.61 L 415.7 145.61 Z" fill="#000000"/>
	<path id="blob-13" d="M 382.9 189.3 C 374.3 127.28 318.7 86.176 264 84.292 C 226.9 83.015 193.1 49.32 155.57 58.02 C 115.9 67.22 88.294 105.18 66.37 140.94 C 49.17 168.99 32.7 207.3 47.35 239.7 C 57.45 262 86.521 261.2 106.57 257 C 159.49 246 213.1 271.4 251.7 312.8 C 269.4 331.7 293.7 352.9 319.5 346.6 C 351.8 338.7 370.6 302 379.2 268.1 C 385.7 242.7 386.6 215.5 382.9 189.3 L 382.9 189.3 Z" fill="#000000"/>
	<path id="blob-14" d="M 351.4 214.6 C 342.3 161.3 299.6 123.99 255.5 106.82 C 224.8 94.87 193.1 73.796 160.55 84.503 C 109.51 101.31 65.47 148.11 51.93 206.5 C 48.26 222.3 56.18 243.4 72.439 245.9 C 109.45 251.7 146.61 234.5 183.4 249 C 225.1 265.5 254.6 307.9 297.1 321.9 C 322.4 330.2 344.3 298.9 348.7 271.8 C 351.8 253 354.7 233.5 351.4 214.6 L 351.4 214.6 Z" fill="#000000"/>
	<path id="blob-15" d="M 310.8 208.8 C 300.9 159.76 258.5 128.4 216.7 117.08 C 188.6 109.47 158.51 96.26 131.19 110.71 C 96.21 129.21 63.75 164.68 61.44 210.1 C 60.51 228.3 79.819 238.1 93.81 236.9 C 135.23 233.4 178.99 230.9 218.1 251.2 C 241 263.1 264.3 284.3 290.2 278.6 C 309.3 274.4 314.1 247.4 312.8 228.1 C 312.3 221.6 312.1 215.1 310.8 208.8 L 310.8 208.8 Z" fill="#000000"/>
	<path id="blob-16" d="M 281.5 219 C 274.3 174.06 237.4 142.79 199.8 131.33 C 174.26 123.54 145.65 113.02 120.95 127.98 C 95.83 143.19 72.198 169.75 70.41 203.7 C 69.76 216 77.759 226.5 88.448 229.2 C 108.58 234.4 128.84 228.7 149.23 230 C 183 232.2 215.8 242.2 247.7 254.9 C 259.5 259.6 275.3 255.5 280.1 241 C 282.4 234.1 282.7 226.3 281.5 219 L 281.5 219 Z" fill="#000000"/>
	<path id="blob-17" d="M 262 206.6 C 255.1 168.88 224 143.51 192.8 132.84 C 177.72 127.68 162.29 122.27 146.2 124.56 C 129.48 126.94 115.04 137.55 103.98 151.55 C 93.53 164.78 81.8786 186.1 92.19 202.3 C 104.14 221.1 128.82 216.4 147.4 216.9 C 181.4 217.9 213.8 233.9 247.7 232.9 C 258.4 232.6 264.1 217.9 262 206.6 L 262 206.6 Z" fill="#000000"/>
</svg>
