<?xml version="1.0" standalone="no"?>
<!DOCTYPE svg PUBLIC "-//W3C//DTD SVG 1.1//EN" "http://www.w3.org/Graphics/SVG/1.1/DTD/svg11.dtd">
<svg viewBox="0 0 490 456" style="background-color:#ffffff00" version="1.1"
	xmlns="http://www.w3.org/2000/svg" xmlns:xlink="http://www.w3.org/1999/xlink" xml:space="preserve"
	x="0px" y="0px" width="490px" height="456px"
>
	<path id="blob-5" d="M 191 419.2 C 243 447.5 306 448.5 365 453.2 C 391 455.7 420 460.8 443 445.4 C 474 425.7 485 385.2 471 354.1 C 457 321.1 431 291.2 429 254.9 C 428 190.1 466 128.5 466 61.4 C 467 37.9812 452 16.26 429 7.2 C 404 -2.62 376 0.24 350 4.9 C 294 14.9 247 50.77 212 93.49 C 181 132.63 126 150.5 74 153.6 C 51 154.7 25 168.5 17 190.2 C 8 219.3 19 246.7 31 272 C 53 318.8 98 351.5 139 384.9 C 155 397.3 172 408.4 191 419.2 L 191 419.2 Z" fill="#000000"/>
	<path id="blob-52" d="M 217 416.6 C 271 442.6 334 438.5 392 448.5 C 419 452.8 451 442 464 418.3 C 479 392.4 472 362.1 457 338.3 C 441 311.7 423 286.5 423 253.9 C 425 185.6 466 124.49 462 56.09 C 460 23.87 425 3.82 390 4.86 C 340 7.77 286 24.44 257 65.12 C 234 98.79 205 131.34 165 150.6 C 131 166.8 94 172.4 63 192.2 C 38 208.8 38 245.4 53 268.1 C 63 283.6 81 293.7 94 308.5 C 129 342 159 381.3 201 408.3 C 206 411.5 211 413.6 217 416.6 L 217 416.6 Z" fill="#000000"/>
	<path id="blob-53" d="M 229 404.4 C 283 430.2 348 419.6 406 433.7 C 434 440 463 419.5 466 392.5 C 470 364.4 455 339.8 440 315 C 427 294 418 269.1 420 244.4 C 425 180.5 463 118.91 458 53.8 C 456 22.7 419 4.85 386 5.57 C 349 8.18 307 17.75 283 47.29 C 260 76.8 244 112.21 212 136.11 C 172 165.6 123 178.4 79 200.6 C 52 213.4 57 252.2 78 267.7 C 93 278.3 107 290 120 304 C 153 339.7 182 381.2 229 404.4 L 229 404.4 Z" fill="#000000"/>
	<path id="blob-54" d="M 235 389 C 276 409.2 324 407.7 369 407.8 C 389 408.4 408 412.1 427 413.8 C 449 414 462 390.2 459 372.6 C 455 354.9 445 342.5 436 328.8 C 422 308.1 409 284 410 258.4 C 414 188.6 454 124.49 452 54.84 C 451 26.56 417 8.33 387 9.56 C 356 10.02 322 16.1 301 40.072 C 284 58.33 278 83.73 262 102.88 C 225 147 173 177.7 119 197.5 C 105 203 88 210 85 224.7 C 83 239.4 91 252.1 103 261.2 C 131 279.7 149 306.9 169 331.8 C 187 355 208 374.5 235 389 L 235 389 Z" fill="#000000"/>
	<path id="blob-55" d="M 257 378 C 297 397.4 344 389.9 388 389.2 C 402 389.7 421 392.5 431 380.5 C 443 367.3 436 347.1 427 334.6 C 416 319.2 405 305 404 287.9 C 403 254.6 409 220.9 418 188.9 C 430 144.1 453 100.3 449 53.27 C 447 27.31 417 11.3 390 11.08 C 359 11.41 325 20.64 308 44.839 C 297 62.08 293 83.14 279 99.85 C 256 127.26 230 152.3 201 175.7 C 181 191.4 156 200 138 216.4 C 123 232.2 138 254 150 267.1 C 185 304.5 208 354.3 257 378 L 257 378 Z" fill="#000000"/>
	<path id="blob-56" d="M 278 360 C 311 375.5 354 375 389 363.7 C 402 358.3 412 341.4 403 329.6 C 387 309.1 391 283 394 259.1 C 403 191.6 441 129.97 447 60.72 C 449 36.987 422 18.44 397 13.76 C 364 9.53 325 24.7 312 54.32 C 305 74.99 294 92.03 280 110.92 C 245 149.6 197 180.5 177 229.8 C 168 250.7 187 271.6 202 286.3 C 226 312.5 244 344.8 278 360 L 278 360 Z" fill="#000000"/>
	<path id="blob-57" d="M 286 339.4 C 308 348.6 339 350.3 362 335 C 376 325.4 377 309 373 294.5 C 361 259.9 384 221.4 396 184.7 C 410 139.5 436 95.24 435 48.72 C 434 24.52 404 12.62 378 18.15 C 356 23.13 337 42.724 331 63.13 C 320 100.76 280 127.1 258 162.5 C 239 191.2 220 223.1 224 254.9 C 228 287.7 250 312.2 274 332.3 C 278 335.7 282 338.1 286 339.4 L 286 339.4 Z" fill="#000000"/>
</svg>
