<?xml version="1.0" standalone="no"?>
<!DOCTYPE svg PUBLIC "-//W3C//DTD SVG 1.1//EN" "http://www.w3.org/Graphics/SVG/1.1/DTD/svg11.dtd">
<svg viewBox="0 0 490 456" style="background-color:#ffffff00" version="1.1"
	xmlns="http://www.w3.org/2000/svg" xmlns:xlink="http://www.w3.org/1999/xlink" xml:space="preserve"
	x="0px" y="0px" width="490px" height="456px"
>
	<path id="blob-6" d="M 48 157.5 C 24 188.3 -1 222.2 0 265.9 C 0 283.8 23 296 40 299 C 93 308.3 141 299.1 194 319.3 C 242 337.6 285 376.4 335 390.8 C 370 401 406 399.4 434 386.5 C 455 377 478 364.2 487 342.1 C 496 317.7 483 286.2 465 260.2 C 452 241.4 438 223.2 424 204.7 C 406 179.5 389 153.5 369 129.7 C 351 107.6 333 81.1 306 69.4 C 261 49.9 216 59.4 178 71.5 C 126 87.9 79 116.4 48 157.5 L 48 157.5 Z" fill="#000000"/>
	<path id="blob-62" d="M 63 162 C 44 187 24 216 30 252.1 C 33 272.7 61 282.5 78 282.5 C 130 282.5 185 292.7 237 322.8 C 274 344.2 308 373.8 347 383.1 C 402 396.3 458 381.2 479 339.6 C 491 316.5 477 285.3 459 259.9 C 433 223 405 186.7 381 148.6 C 360 115.5 327 86.3 290 76.7 C 244 64.8 202 74.5 164 88.3 C 128 101.3 97 122.7 73 150.3 C 70 154.4 66 158.2 63 162 L 63 162 Z" fill="#000000"/>
	<path id="blob-63" d="M 91 158.8 C 74 181.1 48 211.2 61 242.2 C 71 266.2 104 262.1 125 265.5 C 182 275 239 308 290 344.8 C 350 387.9 427 390.7 466 350.6 C 483 333.1 479 299.4 463 274 C 438 235.4 410 199.5 384 161.6 C 365 133.7 339 107.8 307 94.3 C 276 81.1 244 83.7 215 89.7 C 166 99.8 120 121.1 91 158.8 L 91 158.8 Z" fill="#000000"/>
	<path id="blob-64" d="M 111 163.6 C 100 178.5 86 199.1 97 221 C 106 238.9 129 238.9 146 245.7 C 203 268.8 254 309.4 307 345.6 C 340 368.1 381 380.1 413 372.7 C 439 366.7 466 355.2 472 329.7 C 478 307 460 281.9 445 260.2 C 420 223.9 396 186.5 369 151.5 C 343 118.1 299 97.6 263 99.4 C 221 101.5 182 110.3 151 128.8 C 135 138.3 122 149.2 111 163.6 L 111 163.6 Z" fill="#000000"/>
	<path id="blob-65" d="M 133 167.1 C 123 179.3 111 199 124 215.4 C 148 245.7 186 253.7 218 275.2 C 263 306.1 306 346.5 357 365.2 C 402 381.7 451 366.3 463 328 C 470 305 450 277.1 432 255.1 C 404 221.3 385 181.2 354 149.6 C 322 117.4 275 108.4 240 114.8 C 197 122.5 157 136 133 167.1 L 133 167.1 Z" fill="#000000"/>
	<path id="blob-66" d="M 154 171.4 C 146 182 147 199.7 161 212.8 C 184 234.5 212 245.8 235 266.4 C 272 299.5 311 334.9 356 354.4 C 395 371.5 441 365 455 331.3 C 462 312.9 446 289.3 431 270.9 C 408 242.6 395 209.1 374 179.4 C 350 146.6 309 126.1 274 125.5 C 244 125 217 130.7 192 140.6 C 176 146.9 164 157.9 154 171.4 L 154 171.4 Z" fill="#000000"/>
	<path id="blob-67" d="M 185 180.9 C 172 200.9 180 203.3 210 230 C 240 256.7 302 323.9 346 348.5 C 390 373.1 430 360.3 445 341.6 C 460 322.9 454 310.5 440 294.1 C 426 277.7 419 262.6 404 239.6 C 389 216.6 361 179.5 336 162.7 C 311 145.9 299 146.6 271 147.4 C 243 148.2 198 160.9 185 180.9 L 185 180.9 Z" fill="#000000"/>
</svg>
