<?xml version="1.0" standalone="no"?>
<!DOCTYPE svg PUBLIC "-//W3C//DTD SVG 1.1//EN" "http://www.w3.org/Graphics/SVG/1.1/DTD/svg11.dtd">
<svg viewBox="0 0 490 456" style="background-color:#ffffff00" version="1.1"
	xmlns="http://www.w3.org/2000/svg" xmlns:xlink="http://www.w3.org/1999/xlink" xml:space="preserve"
	x="0px" y="0px" width="490px" height="456px"
>
	<path id="blob-4" d="M 410.8 141.3 C 386.9 100.4 346.8 77.1 306.8 61.6 C 242.7 36.7 168.9 39.1 105.7 74.5 C 87.8 84.5 70 104.5 71.7 128.1 C 72.7 141.6 86.1 146.4 96 149.6 C 110.2 154.1 127.8 155.7 136.4 170.9 C 141.6 180.1 134.1 190.5 127.9 196.7 C 114.9 209.8 94.4 214.9 87.4 234.5 C 82.3 248.8 89.2 263.5 94.3 276.1 C 103.5 299 112.1 322.5 125.1 343 C 146.4 376.6 177.4 405 215.1 409.3 C 245.1 412.8 279.6 404.4 300.5 377.6 C 312.8 361.8 300.1 335.1 314.7 321.2 C 331 305.8 355.8 314.9 374.6 302.4 C 389.9 292.3 399 274.3 405.8 256.5 C 418.8 222.4 425.7 182.6 413.8 148.2 C 413 145.9 412 143.4 410.8 141.3 L 410.8 141.3 Z" fill="#000000"/>
	<path id="blob-42" d="M 385 156 C 359.4 107.2 313 78 265.8 62.1 C 209 43 142.2 51.1 92.3 93.1 C 81.3 102.4 74.5 123.1 84.4 135.2 C 99.1 153 127.4 145 140.6 164.5 C 148.9 176.7 139.5 194.6 128.5 202.3 C 115 211.8 96.4 218.8 92.3 237.6 C 87.4 260.3 102 279.3 110 298.6 C 124.2 332.9 147.1 365.8 180 378.1 C 208.2 388.7 244.4 383.4 265.7 357.5 C 276 345 270.1 326.5 265.1 312.8 C 261.7 303.5 254.1 289.2 263 282.6 C 280.8 269.3 303.4 285.3 324 285.1 C 347.1 284.8 370.2 270.9 381.6 246.8 C 394.9 218.7 399.2 183 385 156 L 385 156 Z" fill="#000000"/>
	<path id="blob-43" d="M 365.5 170.1 C 342.1 124.5 298.5 98.6 255.8 81.3 C 208 61.9 151.6 58.7 104.6 86.7 C 92.3 94 78.8 112.2 85.9 126.9 C 96.5 148.6 126 143.8 141.8 159.6 C 151.5 169.3 147 188.1 136.9 197.3 C 122.6 210.5 101.3 218 96.2 239.1 C 91.1 260.2 105.3 278.2 113 296.3 C 126.1 327.1 148.6 356.3 179.4 364 C 202.9 369.9 232.9 364.8 248.7 342.6 C 258.7 328.6 248.8 310.6 245.4 295.6 C 243.4 286.5 242.7 273.4 252.1 269.1 C 266.5 262.5 281.8 268.5 296.1 271.2 C 314.2 274.6 335.9 276.1 350.4 259.8 C 370.7 237 379.8 197.9 365.5 170.1 L 365.5 170.1 Z" fill="#000000"/>
	<path id="blob-44" d="M 340.1 178.8 C 316 135.8 274.3 111.6 233.1 94.5 C 198.4 80.1 158.7 71 122.2 86.7 C 109.3 92.3 91.3 105.7 94.9 121.2 C 100.2 143.6 129.4 142 144.3 156.1 C 156.8 167.9 150.2 192.2 136.8 202.5 C 122.9 213.2 102.4 222.4 100.7 241.9 C 98.1 272.5 119.2 297.6 134.3 321.3 C 149.7 345.4 180.1 353.7 206.7 345.2 C 218.2 341.5 234 336.2 235.8 320.4 C 237.8 302.6 228.2 282.9 238.6 266.8 C 247.2 253.4 264.3 256.1 276.9 258.3 C 293.6 261.2 313.1 268.1 328.3 255.5 C 344.4 242.1 349.5 216.3 345.7 195.3 C 344.6 189.4 342.9 183.8 340.1 178.8 L 340.1 178.8 Z" fill="#000000"/>
	<path id="blob-45" d="M 296.8 180.2 C 263.2 119.3 197 81.4 132.7 94.1 C 120.1 96.6 103.1 105.5 102.9 121 C 102.7 136.7 121.7 140 132.7 146 C 144.5 152.5 155.9 167.8 150.6 184.1 C 143.3 206.3 120.5 214.1 109.5 232.8 C 103.2 243.6 108.7 256.4 113.4 266.3 C 125.3 291.3 139.1 318.2 163.1 328.7 C 179.9 336.1 203.5 335.2 216 318.6 C 229.3 301 217.7 273.6 232.2 256.4 C 245.8 240.2 267 241.7 284.7 238.9 C 296.8 237 305.2 222.5 303.5 208.8 C 302.2 198.8 301.4 188.6 296.8 180.2 L 296.8 180.2 Z" fill="#000000"/>
	<path id="blob-46" d="M 263.8 182.9 C 235.5 129.9 177.7 96.4 122.3 109.6 C 111.9 112.1 112.3 130 121.7 135.2 C 135.7 142.8 151.9 153.8 153.7 172.9 C 155.5 192.1 139.9 206.5 127.5 217.6 C 118.8 225.3 109.1 238.1 113.5 251.1 C 122.4 277.5 136.6 302.7 157.9 317.6 C 172.9 328.1 198.2 328.9 210.1 311.4 C 222.7 292.9 216.1 265.5 230.8 248.1 C 242.5 234.3 262.4 232.1 270 214.5 C 274.6 203.8 268.7 192.1 263.8 182.9 L 263.8 182.9 Z" fill="#000000"/>
	<path id="blob-47" d="M 237.4 178 C 215.9 133.3 169.7 101.8 124.2 112.3 C 113.4 114.8 118.4 133.2 127.3 136.8 C 140.5 142.1 153.5 153.5 155.5 170.9 C 157.3 187 148.4 201.5 138.5 212.4 C 130.9 220.8 121.3 233.1 125.3 245.4 C 131.6 264.6 147.2 277.6 162.5 287.6 C 175.1 295.9 196.7 294.9 205 278.4 C 213.3 261.8 219.6 244 231.3 230.2 C 239.9 220.1 248 205.3 242.7 191.4 C 241 186.8 239.4 182.2 237.4 178 L 237.4 178 Z" fill="#000000"/>
</svg>
